<svg width="334" height="315" viewBox="0 0 334 315" fill="none" xmlns="http://www.w3.org/2000/svg">
<path d="M76.1105 102.36L76 70.7521C76.2209 70.7521 94.668 70.5272 112.452 61.1912C134.655 49.3804 145.48 29.4708 145.48 0H176.52C176.52 52.7549 148.794 77.9511 125.487 89.7621C101.296 102.135 77.1046 102.36 76.1105 102.36Z" fill="#0080FF"/>
<path d="M176.63 173H145.48C145.48 71.8772 244.896 70.7527 245.89 70.7527L246 102.36C245.779 102.36 227.332 102.585 209.548 111.921C187.345 123.62 176.63 143.529 176.63 173Z" fill="#0080FF"/>
<path d="M58.1053 283.871C55.5053 288.342 51.8171 291.875 47.101 294.469C42.3849 297.007 37.0037 298.277 31.0179 298.277C25.0318 298.277 19.6506 297.007 14.9345 294.469C10.2183 291.93 6.53005 288.397 3.93013 283.871C1.33019 279.401 0 274.268 0 268.638C0 262.954 1.33019 257.876 3.93013 253.405C6.53005 248.935 10.2183 245.402 14.9345 242.808C19.6506 240.269 25.0318 239 31.0179 239C37.0037 239 42.3849 240.269 47.101 242.808C51.8171 245.347 55.5053 248.879 58.1053 253.405C60.7052 257.876 62.0354 263.009 62.0354 268.638C62.0354 274.323 60.7052 279.401 58.1053 283.871ZM13.3019 279.622C14.9949 282.878 17.4135 285.417 20.4366 287.183C23.5203 289.004 27.0271 289.887 30.9572 289.887C34.8873 289.887 38.3943 289.004 41.4779 287.183C44.5614 285.362 46.9197 282.878 48.6127 279.622C50.3056 276.365 51.152 272.723 51.152 268.693C51.152 264.665 50.3056 260.967 48.6127 257.765C46.9197 254.509 44.501 251.97 41.4779 250.204C38.3943 248.383 34.8873 247.5 30.9572 247.5C27.0271 247.5 23.5203 248.383 20.4366 250.204C17.353 252.025 14.9949 254.509 13.3019 257.765C11.609 261.022 10.7625 264.665 10.7625 268.693C10.7625 272.723 11.609 276.365 13.3019 279.622Z" fill="#133660"/>
<path d="M141.182 259.201C144.386 262.236 146.019 267.093 146.019 273.716V297.78H136.163V273.771C136.163 270.073 135.317 267.203 133.684 265.272C132.052 263.34 129.633 262.346 126.368 262.346C122.982 262.346 120.262 263.45 118.266 265.658C116.271 267.866 115.303 270.846 115.303 274.71V297.78H105.387V273.771C105.387 270.018 104.541 267.148 102.909 265.217C101.215 263.285 98.7969 262.346 95.5926 262.346C92.2668 262.346 89.6064 263.506 87.6111 265.768C85.6158 268.031 84.6487 271.122 84.6487 274.93V297.725H74.7931V255.171H81.8672L84.4672 260.746C87.7926 256.772 92.3879 254.73 98.1318 254.675C101.397 254.675 104.299 255.337 106.778 256.606C109.257 257.876 111.192 259.808 112.522 262.457C114.155 260.028 116.331 258.097 118.992 256.772C121.652 255.392 124.917 254.73 128.666 254.73C133.805 254.675 137.977 256.165 141.182 259.201Z" fill="#133660"/>
<path d="M261.383 255.171V296.069C261.383 302.085 259.448 306.721 255.518 310.033C251.649 313.344 245.602 315 237.44 315C231.091 315 225.952 313.731 222.021 311.137C218.091 308.543 215.854 304.9 215.431 300.209H225.468C226.072 302.582 227.463 304.458 229.64 305.728C231.817 307.053 234.658 307.659 238.105 307.659C247.053 307.659 251.528 303.686 251.528 295.738V290.991C248.142 295.628 243.063 298.001 236.291 298.001C232.059 298.001 228.249 297.118 224.863 295.352C221.538 293.585 218.877 291.102 217.003 287.845C215.129 284.589 214.161 280.781 214.161 276.31C214.161 272.06 215.129 268.252 217.063 264.996C218.998 261.739 221.598 259.201 224.984 257.379C228.31 255.558 232.119 254.675 236.291 254.675C239.798 254.675 242.881 255.337 245.421 256.606C247.96 257.876 250.016 259.642 251.649 261.85L254.249 255.171H261.383ZM247.839 286.521C250.318 283.927 251.588 280.615 251.588 276.476C251.588 272.281 250.318 268.804 247.839 266.21C245.36 263.561 242.035 262.236 237.984 262.236C233.933 262.236 230.607 263.561 228.128 266.155C225.649 268.749 224.379 272.171 224.379 276.31C224.379 280.45 225.649 283.871 228.128 286.466C230.607 289.06 233.933 290.384 237.984 290.384C242.095 290.384 245.36 289.115 247.839 286.521Z" fill="#133660"/>
<path d="M319.609 255.171V297.835H311.024L309.815 291.322C308.18 293.42 306.066 295.131 303.525 296.4C300.986 297.67 297.963 298.332 294.576 298.332C290.345 298.332 286.536 297.449 283.15 295.683C279.824 293.917 277.164 291.433 275.289 288.121C273.415 284.81 272.448 280.946 272.448 276.531C272.448 272.226 273.415 268.362 275.35 265.106C277.285 261.794 279.885 259.256 283.271 257.434C286.596 255.613 290.405 254.73 294.576 254.73C298.024 254.73 301.047 255.337 303.586 256.496C306.127 257.71 308.18 259.366 309.815 261.463L312.534 255.226H319.609V255.171ZM306.127 286.797C308.604 284.203 309.874 280.781 309.874 276.641C309.874 272.447 308.604 268.97 306.127 266.32C303.647 263.671 300.321 262.346 296.27 262.346C292.218 262.346 288.894 263.671 286.415 266.32C283.936 268.97 282.666 272.336 282.666 276.531C282.666 280.725 283.936 284.203 286.415 286.797C288.894 289.446 292.218 290.77 296.27 290.77C300.382 290.715 303.647 289.391 306.127 286.797Z" fill="#133660"/>
<path d="M192.878 283.43C192.817 283.54 192.817 283.651 192.757 283.761C191.245 288.618 186.65 290.991 181.088 290.936C179.032 290.991 177.037 290.605 175.344 289.887C169.902 287.569 167.483 282.16 167.483 276.365C167.483 270.846 169.116 266.541 173.65 263.726C175.706 262.457 178.246 261.794 180.846 261.85C187.618 261.794 192.697 265.492 193.543 271.729H179.273L173.167 274.102V278.352H203.278C203.459 277.193 203.58 276.034 203.58 274.93C203.64 262.788 193.664 254.399 180.483 254.619C176.069 254.619 172.079 255.502 168.693 257.324C161.255 261.242 157.749 268.473 157.809 276.531C157.749 284.644 161.497 291.764 169.176 295.572C172.804 297.394 177.037 298.277 181.873 298.277C191.064 298.387 198.924 293.972 201.887 286.41C202.371 285.362 202.613 284.423 202.733 283.43H192.878Z" fill="#133660"/>
<path d="M324.326 244.464C324.811 243.747 325.415 243.195 326.199 242.808C326.986 242.422 327.834 242.201 328.801 242.201C329.768 242.201 330.614 242.422 331.401 242.808C332.185 243.195 332.792 243.747 333.274 244.464C333.759 245.182 334 245.954 334 246.782C334 247.61 333.759 248.383 333.274 249.1C332.792 249.818 332.185 250.37 331.401 250.756C330.614 251.143 329.768 251.363 328.801 251.363C327.892 251.363 326.986 251.143 326.199 250.756C325.415 250.37 324.811 249.818 324.326 249.1C323.844 248.383 323.6 247.61 323.6 246.782C323.6 245.899 323.844 245.127 324.326 244.464ZM332.127 244.961C331.764 244.409 331.34 243.968 330.736 243.692C330.131 243.36 329.466 243.25 328.74 243.25C328.014 243.25 327.349 243.416 326.806 243.692C326.199 244.023 325.778 244.409 325.415 244.961C325.052 245.513 324.93 246.12 324.93 246.782C324.93 247.445 325.113 248.052 325.415 248.548C325.778 249.1 326.199 249.487 326.806 249.818C327.41 250.149 328.014 250.259 328.74 250.259C329.466 250.259 330.131 250.094 330.736 249.818C331.34 249.487 331.825 249.1 332.127 248.548C332.49 247.997 332.609 247.389 332.609 246.782C332.67 246.12 332.49 245.513 332.127 244.961ZM328.981 244.354C329.646 244.354 330.131 244.519 330.494 244.795C330.855 245.071 331.099 245.513 331.099 246.01C331.099 246.341 331.038 246.617 330.858 246.838C330.675 247.058 330.433 247.279 330.131 247.389L331.218 249.211H329.768L328.859 247.665H328.255V249.211H326.925V244.354H328.981ZM328.136 246.617H328.859C329.103 246.617 329.283 246.562 329.466 246.451C329.585 246.341 329.707 246.175 329.707 245.954C329.707 245.734 329.646 245.568 329.524 245.458C329.405 245.347 329.164 245.292 328.92 245.292H328.194V246.617H328.136Z" fill="#133660"/>
</svg>
