<svg width="724" height="484" viewBox="0 0 724 484" fill="none" xmlns="http://www.w3.org/2000/svg">
<path d="M188.794 272.835C186.902 276.214 182.759 276.679 176.119 276.037C171.127 275.552 166.574 275.178 161.581 272.454C158.086 270.548 155.32 267.971 153.301 265.467C151.112 262.754 148.058 259.659 149.555 256.583C151.613 252.359 163.511 248.801 175.064 254.619C187.756 261.013 190.645 269.533 188.794 272.835Z" fill="#F9FAFB"/>
<path d="M568.156 250.547C560.419 256.32 548.143 252.951 548.143 252.951C548.143 252.951 548.416 240.223 556.157 234.454C563.893 228.68 576.164 232.045 576.164 232.045C576.164 232.045 575.891 244.773 568.156 250.547Z" fill="#F9FAFB"/>
<path d="M173.857 140.863C181.211 149.38 196.029 148.634 196.029 148.634C196.029 148.634 198.917 134.079 191.555 125.566C184.202 117.05 169.39 117.791 169.39 117.791C169.39 117.791 166.504 132.346 173.857 140.863Z" fill="#F9FAFB"/>
<path d="M353.865 411.675C350.361 411.675 347.52 408.832 347.52 405.325C347.52 401.818 350.361 398.975 353.865 398.975C357.37 398.975 360.211 401.818 360.211 405.325C360.211 408.832 357.37 411.675 353.865 411.675Z" fill="#E5E7EB"/>
<path d="M409.198 359.805C405.345 359.805 402.222 356.68 402.222 352.825C402.222 348.97 405.345 345.845 409.198 345.845C413.05 345.845 416.173 348.97 416.173 352.825C416.173 356.68 413.05 359.805 409.198 359.805Z" fill="#E5E7EB"/>
<path d="M546.218 145.916C543.108 145.916 540.587 143.393 540.587 140.281C540.587 137.169 543.108 134.646 546.218 134.646C549.328 134.646 551.849 137.169 551.849 140.281C551.849 143.393 549.328 145.916 546.218 145.916Z" fill="#E5E7EB"/>
<path d="M154.426 169.842C155.421 173.56 153.216 177.381 149.501 178.377C145.786 179.373 141.968 177.167 140.972 173.449C139.977 169.732 142.181 165.91 145.896 164.914C149.612 163.918 153.43 166.124 154.426 169.842Z" fill="#E5E7EB"/>
<path d="M258.642 110.007C253.526 110.007 249.378 105.856 249.378 100.736C249.378 95.6158 253.526 91.465 258.642 91.465C263.759 91.465 267.907 95.6158 267.907 100.736C267.907 105.856 263.759 110.007 258.642 110.007Z" fill="#E5E7EB"/>
<path d="M598.873 330.302C594.937 330.302 591.746 327.748 591.746 324.597C591.746 321.446 594.937 318.892 598.873 318.892C602.809 318.892 605.999 321.446 605.999 324.597C605.999 327.748 602.809 330.302 598.873 330.302Z" fill="#E5E7EB"/>
<path d="M187.798 380.239C187.798 385.896 183.215 390.482 177.561 390.482C171.908 390.482 167.324 385.896 167.324 380.239C167.324 374.581 171.908 369.995 177.561 369.995C183.215 369.995 187.798 374.581 187.798 380.239Z" fill="#E5E7EB"/>
<path d="M530.549 316.046H530.735C531.839 331.7 543.472 331.941 543.472 331.941C543.472 331.941 530.645 332.191 530.645 350.278C530.645 332.191 517.817 331.941 517.817 331.941C517.817 331.941 529.445 331.7 530.549 316.046Z" fill="#E5E7EB"/>
<path fill-rule="evenodd" clip-rule="evenodd" d="M281.892 106.704C281.892 86.6988 298.099 70.4824 318.089 70.4824H490.767C510.756 70.4824 526.963 86.6988 526.963 106.704V348.621C526.963 368.626 510.756 384.843 490.767 384.843H249.017C229.027 384.843 212.821 368.626 212.821 348.621V158.544C212.821 138.538 229.027 122.322 249.017 122.322H281.892V106.704ZM285.214 123.979C285.214 123.983 285.214 123.987 285.214 123.991V348.621C285.214 363.205 276.601 375.776 264.188 381.517H490.767C508.924 381.517 523.642 366.788 523.642 348.621V106.704C523.642 88.5371 508.924 73.8077 490.767 73.8077H318.089C299.931 73.8077 285.214 88.5371 285.214 106.704V123.979ZM250.921 381.463C268.192 380.476 281.892 366.149 281.892 348.621V149.02L250.921 381.463ZM281.656 125.647H249.017C230.859 125.647 216.142 140.376 216.142 158.544V348.621C216.142 366.302 230.083 380.727 247.568 381.486L281.656 125.647ZM342.33 141.265C342.33 140.346 343.074 139.602 343.991 139.602H464.866C465.783 139.602 466.527 140.346 466.527 141.265C466.527 142.183 465.783 142.927 464.866 142.927H343.991C343.074 142.927 342.33 142.183 342.33 141.265ZM342.33 210.384C342.33 209.465 343.074 208.721 343.991 208.721H464.866C465.783 208.721 466.527 209.465 466.527 210.384C466.527 211.302 465.783 212.046 464.866 212.046H343.991C343.074 212.046 342.33 211.302 342.33 210.384ZM342.33 279.504C342.33 278.586 343.074 277.842 343.991 277.842H464.866C465.783 277.842 466.527 278.586 466.527 279.504C466.527 280.422 465.783 281.167 464.866 281.167H343.991C343.074 281.167 342.33 280.422 342.33 279.504Z" fill="#E5E7EB"/>
<path fill-rule="evenodd" clip-rule="evenodd" d="M218.546 251.292C218.546 291.38 251.018 323.874 291.078 323.874C331.137 323.874 363.609 291.38 363.609 251.292C363.609 211.206 331.137 178.71 291.078 178.71C251.018 178.71 218.546 211.206 218.546 251.292Z" fill="#F9FAFB"/>
<path fill-rule="evenodd" clip-rule="evenodd" d="M210.209 251.292C210.209 206.591 246.418 170.363 291.078 170.363C335.737 170.363 371.946 206.591 371.946 251.292C371.946 295.994 335.736 332.222 291.078 332.222C246.418 332.222 210.209 295.994 210.209 251.292ZM291.078 187.057C255.618 187.057 226.883 215.82 226.883 251.292C226.883 286.765 255.618 315.527 291.078 315.527C326.537 315.527 355.272 286.765 355.272 251.292C355.272 215.82 326.537 187.057 291.078 187.057Z" fill="#3980FF"/>
<path fill-rule="evenodd" clip-rule="evenodd" d="M239.608 302.797C242.863 306.057 242.861 311.343 239.605 314.602L208.613 345.614C205.357 348.873 200.078 348.872 196.823 345.611C193.569 342.35 193.57 337.065 196.827 333.806L227.818 302.793C231.075 299.534 236.353 299.536 239.608 302.797Z" fill="#3980FF"/>
<path fill-rule="evenodd" clip-rule="evenodd" d="M435.204 339.17V305.707C435.205 300.176 436.655 294.741 439.41 289.946C442.166 285.15 446.129 281.162 450.906 278.379L482.506 259.975C487.332 257.165 492.817 255.685 498.401 255.685C503.985 255.685 509.469 257.165 514.296 259.975L545.895 278.379C550.674 281.161 554.639 285.149 557.396 289.944C560.152 294.74 561.603 300.175 561.603 305.707V339.17C561.603 344.701 560.153 350.136 557.398 354.931C554.642 359.726 550.679 363.715 545.902 366.498L514.302 384.902C509.476 387.712 503.991 389.192 498.408 389.192C492.824 389.192 487.34 387.712 482.513 384.902L450.913 366.498C446.134 363.716 442.169 359.728 439.412 354.933C436.656 350.137 435.205 344.702 435.204 339.17Z" fill="#3980FF"/>
<path fill-rule="evenodd" clip-rule="evenodd" d="M498.404 285.374C501.406 285.374 503.84 287.811 503.84 290.817V322.439C503.84 325.445 501.406 327.882 498.404 327.882C495.402 327.882 492.968 325.445 492.968 322.439V290.817C492.968 287.811 495.402 285.374 498.404 285.374ZM498.387 341.591C499.805 341.587 501.192 342.003 502.375 342.787C503.562 343.574 504.49 344.696 505.039 346.011C505.589 347.327 505.736 348.776 505.462 350.175C505.188 351.575 504.506 352.861 503.501 353.871C502.496 354.881 501.215 355.57 499.819 355.85C498.424 356.13 496.977 355.99 495.661 355.446C494.346 354.902 493.22 353.98 492.428 352.795C491.639 351.615 491.216 350.228 491.213 348.807C491.209 347.863 491.392 346.928 491.749 346.055C492.108 345.177 492.637 344.379 493.306 343.707C493.974 343.035 494.769 342.502 495.644 342.139C496.514 341.778 497.446 341.591 498.387 341.591ZM498.388 345.105L498.397 347.033L498.399 345.105C498.88 345.104 499.359 345.198 499.808 345.384C500.029 345.475 500.24 345.587 500.437 345.718C500.841 345.986 501.19 346.333 501.462 346.74C501.596 346.939 501.708 347.15 501.8 347.369C501.983 347.807 502.08 348.278 502.084 348.758C502.084 348.761 502.084 348.765 502.084 348.768C502.085 348.771 502.085 348.774 502.085 348.777C502.085 348.778 502.085 348.779 502.085 348.78C502.085 348.784 502.085 348.787 502.085 348.791C502.084 349.029 502.06 349.266 502.014 349.499C501.968 349.732 501.899 349.96 501.809 350.181C501.625 350.632 501.353 351.042 501.01 351.387C501.01 351.388 501.009 351.388 501.009 351.389C500.665 351.734 500.256 352.008 499.807 352.194C499.588 352.285 499.36 352.355 499.129 352.402C498.896 352.449 498.66 352.474 498.422 352.476C498.419 352.476 498.416 352.476 498.412 352.476C498.411 352.476 498.409 352.476 498.407 352.476C498.405 352.476 498.403 352.476 498.401 352.476C498.397 352.476 498.393 352.476 498.389 352.476C497.911 352.474 497.439 352.378 497 352.197C496.782 352.107 496.573 351.995 496.374 351.864C495.965 351.593 495.616 351.244 495.346 350.839C495.215 350.643 495.102 350.434 495.01 350.214C494.823 349.764 494.727 349.284 494.725 348.802L496.648 348.791L494.725 348.791C494.725 348.554 494.748 348.316 494.794 348.081C494.84 347.843 494.91 347.612 495.001 347.389C495.184 346.944 495.454 346.536 495.797 346.191C495.797 346.19 495.798 346.19 495.798 346.189C496.141 345.845 496.546 345.574 496.99 345.389C497.212 345.296 497.443 345.225 497.681 345.177C497.915 345.13 498.152 345.106 498.388 345.105Z" fill="#F9FAFB"/>
</svg>
