<svg width="334" height="76" viewBox="0 0 334 76" fill="none" xmlns="http://www.w3.org/2000/svg">
<path d="M58.1053 44.8715C55.5053 49.3422 51.8171 52.8746 47.101 55.4686C42.3849 58.0073 37.0037 59.2767 31.0179 59.2767C25.0318 59.2767 19.6506 58.0073 14.9345 55.4686C10.2183 52.9297 6.53005 49.3973 3.93013 44.8715C1.33019 40.4011 0 35.2681 0 29.6384C0 23.9535 1.33019 18.8759 3.93013 14.4053C6.53005 9.93467 10.2183 6.40232 14.9345 3.80828C19.6506 1.26943 25.0318 0 31.0179 0C37.0037 0 42.3849 1.26943 47.101 3.80828C51.8171 6.34714 55.5053 9.87946 58.1053 14.4053C60.7052 18.8759 62.0354 24.0088 62.0354 29.6384C62.0354 35.3232 60.7052 40.4011 58.1053 44.8715ZM13.3019 40.6217C14.9949 43.8781 17.4135 46.417 20.4366 48.1832C23.5203 50.0045 27.0271 50.8874 30.9572 50.8874C34.8873 50.8874 38.3943 50.0045 41.4779 48.1832C44.5614 46.3616 46.9197 43.8781 48.6127 40.6217C50.3056 37.3654 51.152 33.7226 51.152 29.6935C51.152 25.6645 50.3056 21.9666 48.6127 18.7655C46.9197 15.5091 44.501 12.9702 41.4779 11.2041C38.3943 9.38272 34.8873 8.49965 30.9572 8.49965C27.0271 8.49965 23.5203 9.38272 20.4366 11.2041C17.353 13.0254 14.9949 15.5091 13.3019 18.7655C11.609 22.0218 10.7625 25.6645 10.7625 29.6935C10.7625 33.7226 11.609 37.3654 13.3019 40.6217Z" fill="#133660"/>
<path d="M141.182 20.2005C144.386 23.2361 146.019 28.0931 146.019 34.7163V58.78H136.163V34.7714C136.163 31.0734 135.317 28.2033 133.684 26.2717C132.052 24.34 129.633 23.3465 126.368 23.3465C122.982 23.3465 120.262 24.4503 118.266 26.6581C116.271 28.8656 115.303 31.8462 115.303 35.7097V58.78H105.387V34.7714C105.387 31.0183 104.541 28.1482 102.909 26.2165C101.215 24.2848 98.7969 23.3465 95.5926 23.3465C92.2668 23.3465 89.6064 24.5056 87.6111 26.7684C85.6158 29.0315 84.6487 32.1222 84.6487 35.9304V58.7249H74.7931V16.1715H81.8672L84.4672 21.7459C87.7926 17.7721 92.3879 15.7299 98.1318 15.6747C101.397 15.6747 104.299 16.337 106.778 17.6065C109.257 18.8759 111.192 20.8076 112.522 23.4569C114.155 21.0284 116.331 19.0967 118.992 17.7721C121.652 16.3923 124.917 15.7299 128.666 15.7299C133.805 15.6747 137.977 17.1649 141.182 20.2005Z" fill="#133660"/>
<path d="M261.383 16.1715V57.0692C261.383 63.0852 259.448 67.7212 255.518 71.0329C251.649 74.3443 245.602 76.0003 237.44 76.0003C231.091 76.0003 225.952 74.7308 222.021 72.1368C218.091 69.5427 215.854 65.8999 215.431 61.2085H225.468C226.072 63.5819 227.463 65.4583 229.64 66.7277C231.817 68.0526 234.658 68.6595 238.105 68.6595C247.053 68.6595 251.528 64.6858 251.528 56.7381V51.9913C248.142 56.6276 243.063 59.001 236.291 59.001C232.059 59.001 228.249 58.1177 224.863 56.3516C221.538 54.5854 218.877 52.1018 217.003 48.8455C215.129 45.5891 214.161 41.7807 214.161 37.3103C214.161 33.0603 215.129 29.2521 217.063 25.9958C218.998 22.7394 221.598 20.2005 224.984 18.3792C228.31 16.5578 232.119 15.6747 236.291 15.6747C239.798 15.6747 242.881 16.337 245.421 17.6065C247.96 18.8759 250.016 20.6421 251.649 22.8498L254.249 16.1715H261.383ZM247.839 47.5209C250.318 44.9269 251.588 41.6152 251.588 37.4759C251.588 33.2812 250.318 29.8039 247.839 27.2099C245.36 24.5607 242.035 23.2361 237.984 23.2361C233.933 23.2361 230.607 24.5607 228.128 27.1548C225.649 29.7488 224.379 33.1707 224.379 37.3103C224.379 41.4496 225.649 44.8715 228.128 47.4655C230.607 50.0596 233.933 51.3844 237.984 51.3844C242.095 51.3844 245.36 50.1149 247.839 47.5209Z" fill="#133660"/>
<path d="M319.609 16.1713V58.8351H311.024L309.815 52.3225C308.18 54.4198 306.066 56.1306 303.525 57.4001C300.986 58.6695 297.963 59.3318 294.576 59.3318C290.345 59.3318 286.536 58.4489 283.15 56.6827C279.824 54.9165 277.164 52.4327 275.289 49.1212C273.415 45.8095 272.448 41.9463 272.448 37.5307C272.448 33.2258 273.415 29.3623 275.35 26.1059C277.285 22.7944 279.885 20.2555 283.271 18.4342C286.596 16.6128 290.405 15.7297 294.576 15.7297C298.024 15.7297 301.047 16.3368 303.586 17.4959C306.127 18.7101 308.18 20.3659 309.815 22.4632L312.534 16.2265H319.609V16.1713ZM306.127 47.7967C308.604 45.2026 309.874 41.7807 309.874 37.6412C309.874 33.4465 308.604 29.9695 306.127 27.3201C303.647 24.6709 300.321 23.3463 296.27 23.3463C292.218 23.3463 288.894 24.6709 286.415 27.3201C283.936 29.9695 282.666 33.336 282.666 37.5307C282.666 41.7253 283.936 45.2026 286.415 47.7967C288.894 50.4458 292.218 51.7704 296.27 51.7704C300.382 51.7153 303.647 50.3907 306.127 47.7967Z" fill="#133660"/>
<path d="M192.878 44.4299C192.817 44.5403 192.817 44.6505 192.757 44.761C191.245 49.618 186.65 51.9913 181.088 51.936C179.032 51.9913 177.037 51.6048 175.344 50.8874C169.902 48.5691 167.483 43.1604 167.483 37.3651C167.483 31.8459 169.116 27.541 173.65 24.7261C175.706 23.4567 178.246 22.7944 180.846 22.8496C187.618 22.7944 192.697 26.4923 193.543 32.7291H179.273L173.167 35.1022V39.3523H203.278C203.459 38.193 203.58 37.034 203.58 35.9301C203.64 23.7878 193.664 15.3986 180.483 15.6194C176.069 15.6194 172.079 16.5024 168.693 18.3238C161.255 22.2425 157.749 29.4728 157.809 37.5307C157.749 45.644 161.497 52.7638 169.176 56.5722C172.804 58.3935 177.037 59.2767 181.873 59.2767C191.064 59.3869 198.924 54.9716 201.887 47.4102C202.371 46.3616 202.613 45.4233 202.733 44.4299H192.878Z" fill="#133660"/>
<path d="M324.326 5.46424C324.811 4.74675 325.415 4.19483 326.199 3.80847C326.986 3.42212 327.834 3.20134 328.801 3.20134C329.768 3.20134 330.614 3.42212 331.401 3.80847C332.185 4.19483 332.792 4.74675 333.274 5.46424C333.759 6.18174 334 6.95444 334 7.78232C334 8.61021 333.759 9.38291 333.274 10.1004C332.792 10.8179 332.185 11.3698 331.401 11.7562C330.614 12.1426 329.768 12.3633 328.801 12.3633C327.892 12.3633 326.986 12.1426 326.199 11.7562C325.415 11.3698 324.811 10.8179 324.326 10.1004C323.844 9.38291 323.6 8.61021 323.6 7.78232C323.6 6.89926 323.844 6.12656 324.326 5.46424ZM332.127 5.96098C331.764 5.40906 331.34 4.9675 330.736 4.69154C330.131 4.3604 329.466 4.25001 328.74 4.25001C328.014 4.25001 327.349 4.41558 326.806 4.69154C326.199 5.02271 325.778 5.40906 325.415 5.96098C325.052 6.51291 324.93 7.12001 324.93 7.78232C324.93 8.44464 325.113 9.05177 325.415 9.54848C325.778 10.1004 326.199 10.4868 326.806 10.8179C327.41 11.1491 328.014 11.2595 328.74 11.2595C329.466 11.2595 330.131 11.0939 330.736 10.8179C331.34 10.4868 331.825 10.1004 332.127 9.54848C332.49 8.99656 332.609 8.38946 332.609 7.78232C332.67 7.12001 332.49 6.51291 332.127 5.96098ZM328.981 5.35385C329.646 5.35385 330.131 5.51942 330.494 5.79539C330.855 6.07137 331.099 6.51291 331.099 7.00965C331.099 7.34079 331.038 7.61675 330.858 7.83753C330.675 8.05829 330.433 8.27907 330.131 8.38946L331.218 10.2108H329.768L328.859 8.66542H328.255V10.2108H326.925V5.35385H328.981ZM328.136 7.61675H328.859C329.103 7.61675 329.283 7.56157 329.466 7.45118C329.585 7.34079 329.707 7.17522 329.707 6.95444C329.707 6.73369 329.646 6.56809 329.524 6.4577C329.405 6.34733 329.164 6.29213 328.92 6.29213H328.194V7.61675H328.136Z" fill="#133660"/>
</svg>